<svg id="Layer_1" data-name="Layer 1" xmlns="http://www.w3.org/2000/svg" viewBox="0 0 30 20"><defs><style>.cls-1{fill:#ff0;}.cls-2{fill:#fff;}.cls-3{fill:#fcee21;}.cls-4{fill:#ccc;}.cls-5{fill:#e6e6e6;}.cls-6{fill:#f2f2f2;}</style></defs><rect class="cls-1" width="30" height="20" rx="2"/><path class="cls-2" d="M29,20H5V13H27a2,2,0,0,1,2,2Z" transform="translate(-5 -10)"/><rect class="cls-3" y="5" width="30" height="15" rx="1.73"/><path class="cls-3" d="M29,10v.9a.94.94,0,0,0,.94.94h2a.94.94,0,0,0,.94-.94V10Z" transform="translate(-5 -10)"/><path class="cls-4" d="M18.52,27.7h0l4.34-3.77a1,1,0,0,1,1.29,0h0a1,1,0,0,1,0,1.48L21.51,27.7A2.27,2.27,0,0,1,18.52,27.7Z" transform="translate(-5 -10)"/><path class="cls-5" d="M15,7h0a1.06,1.06,0,0,1,1.06,1.06v9.35a0,0,0,0,1,0,0H13.94a0,0,0,0,1,0,0V8.06A1.06,1.06,0,0,1,15,7Z"/><path class="cls-6" d="M21.48,27.7h0a2.27,2.27,0,0,1-3,0l-2.64-2.29a1,1,0,0,1,0-1.48h0a1,1,0,0,1,1.29,0Z" transform="translate(-5 -10)"/></svg>